<svg width="28" height="20" viewBox="0 0 28 20" fill="none" xmlns="http://www.w3.org/2000/svg">
<path d="M8.14464 0.107941C8.9514 0.107941 9.69691 0.17532 10.3812 0.377457C11.0637 0.512215 11.6254 0.793282 12.1242 1.13018C12.623 1.46707 12.994 1.95028 13.246 2.56824C13.491 3.18428 13.624 3.937 13.624 4.7571C13.624 5.71195 13.4385 6.53205 13.001 7.14809C12.6247 7.76413 12.0105 8.31471 11.2562 8.72091C12.3167 9.05973 13.1235 9.67577 13.6152 10.4959C14.107 11.316 14.422 12.3382 14.422 13.5048C14.422 14.4597 14.2382 15.2798 13.9232 15.9651C13.6101 16.6558 13.1384 17.2444 12.5547 17.6727C11.9947 18.0866 11.3104 18.4235 10.5649 18.6276C9.83474 18.8403 9.08366 18.954 8.32839 18.9664L0 18.9799V0.107941H8.14464ZM7.64588 7.76605C8.32839 7.76605 8.8884 7.56392 9.32066 7.21739C9.75116 6.87087 9.94192 6.26061 9.94192 5.50982C9.94192 5.09399 9.88067 4.68972 9.75816 4.41828C9.62445 4.14403 9.4323 3.90952 9.19815 3.73486C8.94465 3.58171 8.67318 3.4677 8.39139 3.39604C8.08339 3.32866 7.76838 3.32866 7.39912 3.32866H3.79756V7.77568C3.79756 7.76605 7.64588 7.76605 7.64588 7.76605ZM7.82963 15.8381C8.20589 15.8381 8.57514 15.7707 8.89015 15.7033C9.19815 15.6359 9.51316 15.4992 9.75816 15.2875C10.0032 15.0757 10.1957 14.8736 10.3812 14.5367C10.5037 14.1979 10.6262 13.784 10.6262 13.3027C10.6262 12.3478 10.3812 11.6625 9.88067 11.1812C9.38191 10.7673 8.69765 10.5652 7.89088 10.5652H3.79756V15.8284H7.83138L7.82963 15.8381ZM19.8313 15.7707C20.3307 16.3187 21.0762 16.5921 22.0679 16.5908C22.7504 16.5908 23.3734 16.3867 23.8739 16.0402C24.3709 15.6295 24.6801 15.2188 24.8014 14.8081H27.8465C27.346 16.4464 26.6004 17.613 25.6099 18.3657C24.6194 19.0492 23.4346 19.4554 22.0049 19.4554C21.0905 19.4615 20.1834 19.2752 19.3326 18.9067C18.5655 18.5954 17.8815 18.0778 17.3428 17.4013C16.7667 16.7719 16.339 15.9975 16.0968 15.145C15.7905 14.2575 15.6593 13.3027 15.6593 12.2034C15.6593 11.1812 15.7818 10.2167 16.0968 9.32925C16.4118 8.44369 16.8423 7.68905 17.404 7.00563C17.9641 6.3896 18.6483 5.83901 19.3938 5.50019C20.2249 5.13529 21.1118 4.94904 22.0066 4.95153C23.0671 4.95153 23.9964 5.15367 24.8032 5.63495C25.6082 6.11623 26.2329 6.65911 26.7317 7.47921C27.2305 8.23001 27.5997 9.11749 27.8535 10.0743C27.976 11.0291 28.0372 11.9917 27.976 13.0832H18.9633C18.9633 14.1998 19.3308 15.2201 19.8313 15.7707ZM23.7514 8.58615C23.3139 8.10487 22.6279 7.83343 21.8211 7.83343C21.2611 7.83343 20.8306 7.96819 20.4543 8.17225C20.0781 8.37632 19.8313 8.65353 19.5863 8.92305C19.3578 9.18748 19.2056 9.52039 19.1488 9.87983C19.0858 10.2167 19.0263 10.4959 19.0263 10.7654H24.6194C24.4969 9.75277 24.1837 9.06743 23.7514 8.58615ZM18.2791 1.40932H25.2407V3.25166H18.2791V1.40932Z" fill="white"/>
</svg>
