<svg width="28" height="28" viewBox="0 0 28 28" fill="none" xmlns="http://www.w3.org/2000/svg">
<path d="M14.0892 3.49826H14.245C15.6835 3.50351 22.9722 3.55601 24.9375 4.08451C25.5316 4.24581 26.073 4.5602 26.5075 4.99627C26.9421 5.43235 27.2546 5.97483 27.4137 6.56951C27.5905 7.23451 27.7148 8.11476 27.7987 9.02301L27.8162 9.20501L27.8547 9.66001L27.8687 9.84201C27.9825 11.4415 27.9965 12.9395 27.9982 13.2668V13.398C27.9965 13.7375 27.9807 15.337 27.8547 17.003L27.8408 17.1868L27.825 17.3688C27.7375 18.3698 27.608 19.3638 27.4137 20.0953C27.2546 20.6899 26.9421 21.2324 26.5075 21.6685C26.073 22.1046 25.5316 22.419 24.9375 22.5803C22.9075 23.1263 15.1917 23.1648 14.1225 23.1665H13.874C13.3333 23.1665 11.0968 23.156 8.75175 23.0755L8.45425 23.065L8.302 23.058L8.00275 23.0458L7.7035 23.0335C5.761 22.9478 3.91125 22.8095 3.059 22.5785C2.4651 22.4174 1.92386 22.1032 1.48934 21.6675C1.05482 21.2317 0.742216 20.6896 0.58275 20.0953C0.3885 19.3655 0.259 18.3698 0.1715 17.3688L0.1575 17.185L0.1435 17.003C0.056636 15.8172 0.0087768 14.6289 0 13.44L0 13.2248C0.0035 12.8485 0.0175 11.5483 0.112 10.1133L0.12425 9.93301L0.1295 9.84201L0.1435 9.66001L0.182 9.20501L0.1995 9.02301C0.2835 8.11476 0.40775 7.23276 0.5845 6.56951C0.743698 5.97483 1.05618 5.43235 1.49072 4.99627C1.92526 4.5602 2.46664 4.24581 3.06075 4.08451C3.913 3.85701 5.76275 3.71701 7.70525 3.62951L8.00275 3.61726L8.30375 3.60676L8.45425 3.60151L8.7535 3.58926C10.419 3.53572 12.0852 3.50596 13.7515 3.50001L14.0892 3.49826ZM11.2 9.11576V17.5473L18.4748 13.3333L11.2 9.11576Z" fill="white"/>
</svg>
